<svg width="32" height="32" viewBox="0 0 32 32" fill="none" xmlns="http://www.w3.org/2000/svg">
<g clip-path="url(#clip0_70_1221)">
<circle cx="16" cy="16" r="16" fill="white"/>
<path d="M24.1667 12.1667H23.21L21.2267 6.70669C21.0625 6.25647 20.7642 5.86745 20.372 5.59207C19.9798 5.3167 19.5125 5.16823 19.0333 5.16669H17.1667C16.525 5.16669 16 5.69169 16 6.33335C16 6.97502 16.525 7.50002 17.1667 7.50002H19.0333L20.7367 12.1667H15.125L14.705 11H14.81C15.4517 11 15.9767 10.475 15.9767 9.83335C15.9767 9.19169 15.4517 8.66669 14.81 8.66669H11.3333C10.6917 8.66669 10.1667 9.19169 10.1667 9.83335C10.1667 10.475 10.6917 11 11.3333 11H12.2083L14.3317 16.8334H13.55C13.0367 14.2317 10.855 12.3067 8.125 12.1784C4.85833 12.015 2 14.7334 2 18C2 21.2667 4.56667 23.8334 7.83333 23.8334C10.7033 23.8334 13.025 21.8617 13.55 19.1667H18.45C18.9633 21.7684 21.145 23.6934 23.875 23.8217C27.1417 23.9734 30 21.2667 30 17.9884C30 14.7334 27.4333 12.1667 24.1667 12.1667ZM9 19.1667H11.1233C10.6333 20.6017 9.25667 21.5934 7.6 21.4884C5.86167 21.3834 4.415 19.9134 4.33333 18.1634C4.25167 16.1217 5.815 14.5 7.83333 14.5C9.385 14.5 10.6567 15.4684 11.1233 16.8334H9C8.35833 16.8334 7.83333 17.3584 7.83333 18C7.83333 18.6417 8.35833 19.1667 9 19.1667ZM18.45 16.8334H16.8167L15.965 14.5H19.5C18.9867 15.1767 18.6133 15.9584 18.45 16.8334ZM24.0267 21.5C22.23 21.43 20.7133 19.9017 20.6667 18.0934C20.6433 16.9734 21.1217 15.9934 21.8917 15.34L22.615 17.3234C22.8367 17.93 23.5017 18.245 24.1083 18.0234C24.715 17.8017 25.03 17.1367 24.8083 16.53L24.0733 14.5117L24.085 14.5C24.5528 14.4841 25.0189 14.5631 25.4553 14.7323C25.8916 14.9015 26.2892 15.1574 26.6239 15.4845C26.9587 15.8116 27.2237 16.2031 27.4029 16.6355C27.5821 17.0678 27.6718 17.532 27.6667 18C27.6667 20.0067 26.0567 21.57 24.0267 21.5Z" fill="url(#paint0_linear_70_1221)"/>
</g>
<defs>
<linearGradient id="paint0_linear_70_1221" x1="16" y1="5.16669" x2="16" y2="30.8334" gradientUnits="userSpaceOnUse">
<stop stop-color="#F2A50C"/>
<stop offset="1" stop-color="#E59317"/>
</linearGradient>
<clipPath id="clip0_70_1221">
<rect width="32" height="32" fill="white"/>
</clipPath>
</defs>
</svg>
